# xmcd
#
# Track frame offsets: 
#        150
#        18354
#        33009
#        51424
#        65187
#        84038
#        101135
#        104334
#        132164
#        147929
#        160495
#        181201
#        182852
#
# Disc length: 2790 seconds
#
# Revision: 3
# Processed by: cddbd v1.5.1PL0 Copyright (c) Steve Scherf et al.
# Submitted via: ExactAudioCopy v0.95a5
#
DISCID=b00ae40d
DTITLE=Mark David Manders and Nuevo Tejas - Chili Pepper Sunset
DYEAR=2000
DGENRE=Country
TTITLE0=Black Jack Road
TTITLE1=Telephone Song
TTITLE2=Three Fingers Tequila
TTITLE3=Gillespie County Peaches
TTITLE4=Anne Marie
TTITLE5=Not All Angels
TTITLE6=Intro To Jim Murphy
TTITLE7=Jim Murphy
TTITLE8=Scars And Souveniers
TTITLE9=Mountain Of Gold
TTITLE10=Headin' Out West
TTITLE11=Intro To Beer
TTITLE12=Beer
EXTD=
EXTT0=
EXTT1=
EXTT2=
EXTT3=
EXTT4=
EXTT5=
EXTT6=
EXTT7=
EXTT8=
EXTT9=
EXTT10=
EXTT11=
EXTT12=Contains "secret" track Big Johnson
PLAYORDER=
